<!-- Generated by IcoMoon.io -->
<svg version="1.1" xmlns="http://www.w3.org/2000/svg" width="1043" height="1024" viewBox="0 0 1043 1024">
<title></title>
<g id="icomoon-ignore">
</g>
<path fill="#000" d="M15.36 1.403h1022.616v1022.597h-1022.616v-1022.597z"></path>
<path fill="#fff" d="M718.507 432.356v79.644l-32.408 1.498 0.493-80.782h-80.782v-31.82h80.289v-79.644l31.896-0.493 0.493 79.644h79.644v31.953h-79.644zM500.433 343.59c29.051 11.15 44.487 44.98 44.487 79.644-1.158 29.724-16.145 55.721-38.671 71.869l-0.279 0.19c-22.263 17.389-26.548 24.652-26.548 39.462 0 12.629 23.836 34.133 36.314 42.932 29.148 16.897 48.44 47.949 48.44 83.506 0 2.171-0.072 4.325-0.213 6.459l0.015-0.29c0 49.835-48.242 99.385-135.604 99.385-76.61 0-141.255-31.156-141.255-81.010 0-50.593 57.989-100.371 134.637-100.371 8.344 0 16.972 0.74 24.898 0.74-10.478-8.703-17.189-21.628-17.502-36.129l-0.001-0.053c-0.011-0.446-0.018-0.97-0.018-1.496 0-9.49 2.103-18.49 5.869-26.557l-0.162 0.386c-4.172 0.284-8.439 0.379-12.819 0.379-1.604 0.092-3.48 0.145-5.369 0.145-55.067 0-99.707-44.64-99.707-99.707 0-0.238 0.001-0.475 0.002-0.712v0.037c0-54.291 58.197-101.148 120.055-101.148h137.993l-30.758 22.3h-43.823zM437.324 599.23c-52.945-0.607-100.409 32.237-100.409 71.737 0 40.258 38.248 73.785 91.212 73.785 74.449 0 100.409-31.46 100.409-71.737-0.006-5.049-0.621-9.952-1.775-14.643l0.088 0.421c-5.822-22.756-26.453-34.133-55.201-54.082-10.241-3.395-22.033-5.394-34.28-5.48h-0.042zM495.294 426.003c-6.049-46.744-39.917-84.196-75.454-85.257s-59.373 34.664-53.248 81.351 39.917 85.333 75.473 86.414 59.354-35.878 53.229-82.565z"></path>
</svg>
