<!-- Generated by IcoMoon.io -->
<svg version="1.1" xmlns="http://www.w3.org/2000/svg" width="1024" height="1024" viewBox="0 0 1024 1024">
<title></title>
<g id="icomoon-ignore">
</g>
<path fill="#000" d="M0 1.195h1019.259v1022.824h-1019.259v-1022.824z"></path>
<path fill="#fff" d="M680.031 799.763v-219.174c0-52.034-23.571-87.571-68.93-87.571-30.539 0.426-56.488 19.62-66.866 46.55l-0.168 0.497c-3.977 9.246-6.463 19.982-6.86 31.249l-0.004 0.154v228.295h-114.328v-270.374c0-50.441-12.421-102.286-14.089-130.958h108.658l5.689 57.325h2.484c25.141-39.293 68.556-64.966 117.967-64.966 2.282 0 4.551 0.055 6.805 0.163l-0.318-0.012c82.299 0 144.119 55.789 144.119 174.744v234.079h-114.157zM223.023 398.431h142.772v401.332h-142.829v-401.313zM289.394 350.891c-0.685 0.027-1.488 0.042-2.295 0.042-34.718 0-62.862-28.144-62.862-62.862s28.144-62.862 62.862-62.862c1.415 0 2.819 0.047 4.21 0.139l-0.189-0.010c1.052-0.063 2.281-0.099 3.519-0.099 34.739 0 62.9 28.161 62.9 62.9s-28.161 62.9-62.9 62.9c-1.866 0-3.714-0.081-5.539-0.24l0.237 0.017z"></path>
</svg>
