<!-- Generated by IcoMoon.io -->
<svg version="1.1" xmlns="http://www.w3.org/2000/svg" width="1024" height="1024" viewBox="0 0 1024 1024">
<title></title>
<g id="icomoon-ignore">
</g>
<path fill="#000" d="M0 1.403h1022.597v1022.597h-1022.597v-1022.597z"></path>
<path fill="#fff" d="M207.227 609.659s120.168 104.505 215.723 0.91c-9.761-0.138-18.81-3.068-26.417-8.025l0.192 0.117c-6.217-5.888-10.785-13.458-12.977-21.981l-0.070-0.32s29.734-16.631 18.565-29.165c0 0-65.745-1.308-69.423-41.017l38.628-24.936c-4.404 1.994-9.55 3.156-14.967 3.156-5.515 0-10.749-1.204-15.453-3.364l0.231 0.095s-38.988-27.951-31.554-56.567l32.559-3.319s-56.491-40.164-40.751-71.016c0 0 5.442-26.548 192.322 97.545 0 0 32.958-117.267 93.81-143.057 4.586 1.899 8.167 5.449 10.061 9.892l0.046 0.121c3.91-9.11 10.962-16.248 19.762-20.174l0.244-0.097s13.767 12.098 4.817 18.963c0 0 23.154-15.853 34.456-7.813 0 0-0.929 14.089-34.133 31.63 0 0 86.376 4.798 116.527 119.979 7.835 2.509 16.848 3.955 26.199 3.955 17.179 0 33.218-4.881 46.806-13.333l-0.377 0.218s2.92 17.067-51.674 41.093c0 0 5.082 8.211 50.859 1.896 0 0-0.36 34.133-72.761 33.792 0 0-61.137 177.152-209.768 201.557-180.66 29.753-307.541-60.549-321.479-120.737z"></path>
</svg>
